<?xml version="1.0" encoding="UTF-8"?>
<svg version="1.1" xmlns="http://www.w3.org/2000/svg" width="512" height="512">
<path d="M0 0 C1.37608571 0.70937541 1.37608571 0.70937541 2.77997112 1.43308163 C3.77240165 1.92632396 4.76483217 2.41956629 5.78733635 2.92775536 C7.91289815 3.98625578 10.03459483 5.05254754 12.15267849 6.12593365 C15.37394829 7.75584319 18.60654398 9.36047036 21.8443327 10.95728207 C28.13837053 14.06426786 34.41979 17.19605378 40.69816518 20.3345511 C42.55358848 21.2619014 44.40929732 22.18867787 46.26509953 23.11526966 C52.75884286 26.35756885 59.25159424 29.6018439 65.74335003 32.84812069 C71.77280962 35.8631541 77.80451742 38.87365607 83.8372243 41.882186 C89.05608516 44.48509143 94.27340975 47.09105784 99.48953503 49.6994409 C102.58918467 51.24939296 105.6894381 52.79810566 108.7912569 54.34371281 C112.22478598 56.05476163 115.65511269 57.77216559 119.0851469 59.49021053 C120.61913631 60.25299061 120.61913631 60.25299061 122.18411541 61.03118038 C123.11283962 61.49763973 124.04156384 61.96409908 124.99843121 62.44469357 C125.80738999 62.84890058 126.61634878 63.25310759 127.44982147 63.66956329 C129.4120512 64.77512264 129.4120512 64.77512264 131.4120512 66.77512264 C131.6639002 68.94778711 131.6639002 68.94778711 131.66652679 71.70808029 C131.67235899 72.75748096 131.67819118 73.80688163 131.68420011 74.88808233 C131.68042078 76.05002148 131.67664146 77.21196064 131.67274761 78.40911007 C131.67657316 79.63644035 131.68039871 80.86377063 131.68434018 82.12829274 C131.69290334 85.54606795 131.69242522 88.96362919 131.68815958 92.38139856 C131.6857017 96.06316836 131.69469489 99.74491243 131.70219707 103.42667294 C131.7149731 110.64445257 131.7167341 117.86219506 131.71439681 125.07998411 C131.71261644 130.94564982 131.71435724 136.81130422 131.71862125 142.67696857 C131.71921644 143.51063771 131.71981163 144.34430685 131.72042486 145.20323869 C131.72163657 146.89666397 131.7228507 148.59008925 131.72406723 150.28351452 C131.73495431 166.17995603 131.73277498 182.07637634 131.72668239 197.97281905 C131.72151425 212.52225861 131.73276387 227.07163118 131.75178061 241.62105749 C131.77114386 256.54974512 131.77941754 271.47840105 131.77565736 286.40710133 C131.77374274 294.79263333 131.77625795 303.17810833 131.79037189 311.5636301 C131.80226755 318.70370011 131.80371119 325.84367808 131.79158173 332.98374931 C131.78567972 336.62789699 131.78462977 340.27187616 131.79658413 343.91601276 C131.80938533 347.86415411 131.79900953 351.81203819 131.786273 355.76018429 C131.79364729 356.91543128 131.80102157 358.07067827 131.80861932 359.26093274 C131.80141278 360.31815666 131.79420623 361.37538057 131.78678131 362.46464157 C131.78683633 363.37602538 131.78689134 364.28740919 131.78694803 365.22641069 C131.32695813 368.35362241 130.24861287 370.22131237 128.4120512 372.77512264 C123.54008301 376.13910068 119.12333133 376.62601236 113.4120512 375.77512264 C105.25746423 372.92051336 97.50155892 368.96240574 89.7946806 365.08669186 C88.69003546 364.53522372 87.58539033 363.98375558 86.44727111 363.41557628 C83.41730162 361.90194245 80.38914745 360.38478388 77.3617425 358.86603391 C74.08322039 357.22242065 70.80235952 355.58348771 67.52179241 353.94396114 C61.85014564 351.10865999 56.17996128 348.27045255 50.5107832 345.4302187 C42.31428264 341.3238125 34.11555465 337.22187002 25.91629085 333.12098453 C12.61090005 326.46610502 -0.69270339 319.80766064 -13.99517536 313.14694881 C-26.91089991 306.67989581 -39.8274706 300.21453777 -52.74517536 293.751441 C-53.54253749 293.35249721 -54.33989963 292.95355342 -55.16142425 292.54252043 C-59.16189393 290.54098047 -63.1623802 288.53947365 -67.1628747 286.5379833 C-100.3071376 269.9554992 -133.44849676 253.3672188 -166.5879488 236.77512264 C-166.58426163 237.43257977 -166.58057446 238.09003689 -166.57677555 238.76741695 C-166.48833487 254.78463162 -166.42219574 270.80176103 -166.38070011 286.81915951 C-166.36009836 294.56514933 -166.3320237 302.3109759 -166.28619099 310.05686092 C-166.24624977 316.81029625 -166.22049863 323.5636133 -166.21159482 330.31716347 C-166.20639231 333.89126069 -166.19421509 337.46501963 -166.16502857 341.03900814 C-166.13266606 345.03453055 -166.13199403 349.0294695 -166.13384724 353.02512264 C-166.11227558 354.79134724 -166.11227558 354.79134724 -166.09026814 356.59325314 C-166.12471813 363.46252484 -166.88295947 367.93741183 -170.5879488 373.77512264 C-173.83719889 376.66334495 -176.89799255 377.37979068 -181.2520113 377.17746639 C-189.97017046 375.67584366 -198.04914746 370.60850099 -205.74590778 366.42575741 C-210.36403702 363.918513 -215.0362398 361.53012334 -219.73858356 359.18527889 C-220.4360183 358.83703658 -221.13345304 358.48879427 -221.85202217 358.12999916 C-227.82913447 355.14805548 -233.81429312 352.18242606 -239.80122948 349.2202673 C-246.588882 345.86187933 -253.37172128 342.49386391 -260.15280151 339.12222672 C-264.68743783 336.86804182 -269.22391527 334.61772244 -273.76446247 332.37546444 C-278.20283543 330.18345691 -282.63623776 327.98168622 -287.06638241 325.77309895 C-288.74350896 324.93913518 -290.42238458 324.10867883 -292.10306072 323.28189182 C-294.4448252 322.12919043 -296.78000482 320.96406614 -299.11407185 319.7958746 C-299.80031635 319.46174053 -300.48656086 319.12760647 -301.19360065 318.78334713 C-308.19080974 315.24717231 -313.40830145 309.99474638 -316.5879488 302.77512264 C-317.2920372 298.68775073 -317.25939086 294.67321201 -317.21613789 290.53349972 C-317.22323227 289.31329354 -317.23032666 288.09308737 -317.23763603 286.83590525 C-317.25215074 283.46545797 -317.24436049 280.09642459 -317.22691309 276.72608197 C-317.21350999 273.08529118 -317.22898647 269.44460506 -317.24073505 265.80382442 C-317.25909253 258.67902534 -317.25061283 251.5545009 -317.23264683 244.42971043 C-317.21861164 238.63997368 -317.21472999 232.8503114 -317.2180891 227.06055927 C-317.21856655 226.23602916 -317.21904399 225.41149904 -317.2195359 224.56198316 C-317.22056224 222.88691807 -317.2216176 221.211853 -317.22270166 219.53678795 C-317.23126447 204.73344681 -317.21460557 189.93023818 -317.18487263 175.12692928 C-317.15602051 160.76196385 -317.14895964 146.39718919 -317.16436481 132.03220272 C-317.18112161 116.38544678 -317.18516774 100.73878137 -317.16765445 85.09202307 C-317.16581007 83.42409497 -317.16397534 81.75616685 -317.16215038 80.08823872 C-317.16123829 79.26759732 -317.1603262 78.44695592 -317.15938647 77.6014466 C-317.15377904 71.81682749 -317.15709004 66.03225256 -317.16369534 60.24763584 C-317.1714224 53.2009907 -317.16469818 46.15453342 -317.13952029 39.10792617 C-317.12701236 35.5123092 -317.12089426 31.91698491 -317.13206196 28.32135677 C-317.14393238 24.42598817 -317.12487046 20.53112599 -317.1026125 16.63579464 C-317.11085326 15.49631321 -317.11909403 14.35683179 -317.12758452 13.18282062 C-317.04663193 5.53963811 -317.04663193 5.53963811 -314.68078232 1.59633064 C-311.48488292 -1.18477808 -309.18871268 -1.61267704 -304.93633747 -1.54677486 C-300.31120925 -0.91280091 -296.35884385 1.35926988 -292.2441988 3.46433163 C-291.24618244 3.95850047 -290.24816608 4.45266932 -289.21990681 4.96181297 C-287.08935404 6.01750676 -284.96193884 7.07955272 -282.83746052 8.14741802 C-278.59461231 10.27269229 -274.32741707 12.34621301 -270.06002522 14.42163849 C-258.09698964 20.24700096 -246.17392365 26.15464839 -234.25265217 32.06492615 C-227.74371094 35.29126033 -221.23003352 38.50722838 -214.70415974 41.69919491 C-208.94052217 44.51834727 -203.18638136 47.3558768 -197.44284153 50.21576589 C-194.42375319 51.71832606 -191.40012129 53.20883795 -188.36700153 54.68306828 C-184.9983241 56.32243267 -181.64750959 57.99393846 -178.2988863 59.67380428 C-177.31290455 60.14421139 -176.3269228 60.61461849 -175.31106281 61.09928036 C-168.26417983 64.69679712 -164.59381578 69.01624784 -160.5879488 75.77512264 C-159.87880329 76.88798641 -159.16965778 78.00085018 -158.43902302 79.1474371 C-157.54981159 80.62796566 -157.54981159 80.62796566 -156.6426363 82.13840389 C-155.96499226 83.26158016 -155.28734821 84.38475643 -154.5891695 85.54196835 C-154.24246204 86.12016323 -153.89575459 86.69835812 -153.53854084 87.29407406 C-151.67813927 90.3962917 -149.8060112 93.49143062 -147.93560505 96.58762264 C-147.56298038 97.20514904 -147.19035572 97.82267544 -146.8064394 98.45891476 C-143.04128337 104.6935115 -139.20800817 110.88502382 -135.35577106 117.06613827 C-132.44385433 121.74723372 -129.57478671 126.45056934 -126.7441988 131.18137264 C-126.1031319 132.24895809 -125.46206501 133.31654354 -124.80157185 134.41648006 C-123.55470255 136.49630353 -122.31376262 138.57969568 -121.07940388 140.66696835 C-120.52148151 141.59597958 -119.96355915 142.52499081 -119.38873005 143.48215389 C-118.89542194 144.31206844 -118.40211384 145.14198299 -117.893857 145.99704647 C-117.4629073 146.58381161 -117.03195759 147.17057674 -116.5879488 147.77512264 C-115.9279488 147.77512264 -115.2679488 147.77512264 -114.5879488 147.77512264 C-112.88760291 145.43143107 -112.88760291 145.43143107 -111.13091755 142.38840389 C-110.79191425 141.82424267 -110.45291096 141.26008144 -110.10363483 140.67882442 C-109.37131313 139.45826398 -108.6423295 138.23569598 -107.91628742 137.01138973 C-106.76704799 135.07345656 -105.60960261 133.14066457 -104.44952106 131.20920467 C-103.27398489 129.25201244 -102.09886085 127.29459245 -100.92631245 125.33560848 C-97.67708522 119.90844277 -94.36762433 114.520565 -91.0254488 109.15012264 C-89.97837635 107.46404733 -88.93150433 105.77784753 -87.8848238 104.09152889 C-87.08914997 102.80979794 -87.08914997 102.80979794 -86.27740192 101.50217342 C-83.09859765 96.37106883 -79.93763192 91.22898101 -76.7754488 86.08762264 C-76.10376667 84.99562557 -75.43208454 83.9036285 -74.74004841 82.77854061 C-73.37205274 80.55430334 -72.00413321 78.33001924 -70.63628864 76.10568905 C-66.62497823 69.58336525 -62.61155774 63.06233922 -58.59747028 56.54172421 C-55.21067459 51.0395808 -51.82657501 45.53580961 -48.4473238 40.02902889 C-45.12193983 34.61107856 -41.78752155 29.19878668 -38.44683552 23.79025936 C-37.22893122 21.81480387 -36.01428839 19.83733305 -34.80328083 17.85764217 C-33.17728906 15.19992266 -31.54032392 12.54929079 -29.9004488 9.90012264 C-29.43155231 9.12741024 -28.96265583 8.35469784 -28.47955036 7.55856991 C-21.2484775 -4.03984976 -12.02349073 -5.90562448 0 0 Z " fill="#A1A1A1" transform="translate(348.5879487991333,69.22487735748291)"/>
<path d="M0 0 C3.60377066 1.24357105 6.93693099 2.93530931 10.32836914 4.66723633 C11.82465017 5.40742744 11.82465017 5.40742744 13.3511591 6.16257191 C15.4841667 7.22029541 17.61359285 8.2852671 19.73967361 9.35684586 C22.94350412 10.97152695 26.15615178 12.56705681 29.37228394 14.15707397 C36.1741495 17.52504579 42.96044372 20.92372569 49.74609375 24.32421875 C52.22408701 25.5644347 54.7023875 26.80403619 57.18067932 28.0436554 C62.96769387 30.93869601 68.75368899 33.83576764 74.53928858 36.73363477 C81.14347535 40.04138266 87.74884426 43.34676673 94.35429657 46.65198648 C107.90414934 53.43209205 121.45256975 60.21505507 135 67 C135.36713938 120.87707648 135.68545526 174.75432449 135.95718378 228.63196719 C135.98915627 234.94190839 136.02272616 241.25183953 136.05718994 247.56176758 C136.151099 264.84238118 136.23419008 282.12289944 136.2764225 299.40372658 C136.29385985 306.44613815 136.3174884 313.48838504 136.35888672 320.53070068 C136.39728752 327.07191324 136.41536795 333.6129487 136.41895103 340.15428925 C136.42343653 342.52077294 136.43468758 344.88725537 136.45334816 347.25366974 C136.47750586 350.45472195 136.47691303 353.6548431 136.4699707 356.85595703 C136.48278328 357.77610029 136.49559586 358.69624355 136.50879669 359.64426994 C136.46090293 365.56535994 135.35647935 370.05437659 132 375 C128.75074991 377.8882223 125.68995625 378.60466804 121.3359375 378.40234375 C112.61777834 376.90072102 104.53880134 371.83337835 96.84204102 367.65063477 C92.22391178 365.14339036 87.551709 362.7550007 82.84936523 360.41015625 C82.15193049 360.06191394 81.45449575 359.71367163 80.73592663 359.35487652 C74.75881433 356.37293284 68.77365568 353.40730341 62.78671932 350.44514465 C55.99906679 347.08675669 49.21622752 343.71874126 42.43514729 340.34710407 C37.90051097 338.09291917 33.36403353 335.84259979 28.82348633 333.6003418 C24.38511336 331.40833426 19.95171104 329.20656358 15.52156639 326.9979763 C13.84443984 326.16401253 12.16556422 325.33355619 10.48488808 324.50676918 C8.1431236 323.35406779 5.80794398 322.1889435 3.47387695 321.02075195 C2.78763245 320.68661789 2.10138794 320.35248383 1.39434814 320.00822449 C-5.60286094 316.47204967 -10.82035265 311.21962374 -14 304 C-14.7040884 299.91262809 -14.67144207 295.89808937 -14.62818909 291.75837708 C-14.63528347 290.5381709 -14.64237786 289.31796473 -14.64968723 288.06078261 C-14.66420194 284.69033533 -14.65641169 281.32130195 -14.6389643 277.95095932 C-14.62556119 274.31016854 -14.64103767 270.66948242 -14.65278625 267.02870178 C-14.67114373 259.90390269 -14.66266403 252.77937825 -14.64469803 245.65458778 C-14.63066284 239.86485104 -14.62678119 234.07518876 -14.6301403 228.28543663 C-14.63061775 227.46090651 -14.63109519 226.6363764 -14.6315871 225.78686052 C-14.63261344 224.11179543 -14.6336688 222.43673036 -14.63475286 220.76166531 C-14.64331567 205.95832416 -14.62665677 191.15511554 -14.59692383 176.35180664 C-14.56807171 161.98684121 -14.56101084 147.62206655 -14.57641602 133.25708008 C-14.59317282 117.61032414 -14.59721894 101.96365872 -14.57970566 86.31690043 C-14.57786127 84.64897232 -14.57602654 82.9810442 -14.57420158 81.31311607 C-14.57328949 80.49247468 -14.5723774 79.67183328 -14.57143768 78.82632396 C-14.56583024 73.04170485 -14.56914124 67.25712992 -14.57574654 61.4725132 C-14.5834736 54.42586806 -14.57674939 47.37941077 -14.5515715 40.33280353 C-14.53906356 36.73718655 -14.53294546 33.14186227 -14.54411316 29.54623413 C-14.55598359 25.65086552 -14.53692166 21.75600335 -14.5146637 17.860672 C-14.52290446 16.72119057 -14.53114523 15.58170914 -14.53963572 14.40769798 C-14.45868314 6.76451547 -14.45868314 6.76451547 -12.09283352 2.821208 C-8.32414788 -0.45834595 -4.84003947 -0.66055223 0 0 Z " fill="#575757" transform="translate(46,68)"/>
<path d="M0 0 C0.33 0 0.66 0 1 0 C1.06863669 38.26049896 1.12151382 76.52098866 1.15319599 114.78153671 C1.1569482 119.29649658 1.16083116 123.81145633 1.16479492 128.32641602 C1.16558185 129.22527951 1.16636878 130.124143 1.16717956 131.05024479 C1.18024059 145.61273663 1.20389826 160.17519303 1.23145839 174.73766383 C1.25949321 189.67531968 1.27617218 204.61295694 1.28226548 219.55063802 C1.28638592 228.77118415 1.29940931 237.99163007 1.3237494 247.21214537 C1.33958286 253.53130818 1.34440579 259.85041905 1.34050413 266.16960027 C1.33857885 269.81779351 1.3415715 273.4658114 1.35761642 277.11397362 C1.37487369 281.06658227 1.36897786 285.01896111 1.36076355 288.97160339 C1.36950207 290.12821462 1.3782406 291.28482585 1.38724393 292.47648591 C1.38127078 293.53494322 1.37529764 294.59340053 1.36914349 295.6839323 C1.37028265 296.59640026 1.37142181 297.50886821 1.37259549 298.44898671 C0.91543924 301.57895392 -0.1616995 303.44470688 -2 306 C-6.87327752 309.3648821 -11.28753343 309.84876044 -17 309 C-25.42563475 306.06392575 -33.421708 301.92918322 -41.37792969 297.92456055 C-42.55011047 297.33861618 -43.72229126 296.75267181 -44.92999268 296.14897156 C-48.10453474 294.56198421 -51.2766079 292.9701211 -54.44821835 291.37728477 C-57.77792913 289.70612361 -61.10994807 288.03957691 -64.44171143 286.37251282 C-70.73280271 283.22387496 -77.02184575 280.07116885 -83.31013989 276.91694909 C-90.4767595 273.32241218 -97.64568612 269.73248786 -104.81479788 266.14292467 C-119.54574836 258.76703288 -134.27383092 251.38543354 -149 244 C-147.74225536 241.78698519 -146.48309914 239.57479328 -145.22314453 237.36303711 C-144.87149734 236.7439724 -144.51985016 236.12490768 -144.157547 235.48708344 C-140.88479256 229.74649907 -137.41004093 224.14502667 -133.875 218.5625 C-128.81244091 210.51617051 -123.80400685 202.44135285 -118.875 194.3125 C-113.96640364 186.22057886 -109.01724479 178.15575089 -104.02807617 170.11328125 C-99.73312723 163.18873224 -95.45659991 156.2530137 -91.1875 149.3125 C-90.51605957 148.22090576 -89.84461914 147.12931152 -89.15283203 146.00463867 C-87.78459668 143.77999176 -86.41643296 141.55530079 -85.04833984 139.33056641 C-81.70006312 133.88632432 -78.34995241 128.4432111 -75 123 C-73.66665758 120.83333892 -72.33332426 118.66667225 -71 116.5 C-31 51.5 -31 51.5 -28.99682617 48.24511719 C-27.67374483 46.09492801 -26.35098684 43.94453983 -25.02856445 41.79394531 C-21.91396737 36.72969735 -18.79618182 31.6674995 -15.66671753 26.61242676 C-14.1934341 24.23215959 -12.7220133 21.85074364 -11.25073242 19.46923828 C-10.21519113 17.79477634 -9.17696786 16.12197396 -8.13867188 14.44921875 C-7.19411133 12.91974609 -7.19411133 12.91974609 -6.23046875 11.359375 C-5.40131958 10.02084473 -5.40131958 10.02084473 -4.55541992 8.65527344 C-2.8999499 5.82920343 -1.43388636 2.94382237 0 0 Z " fill="#CFCFCF" transform="translate(479,136)"/>
<path d="M0 0 C2.60488368 2.55326115 4.71696687 4.87393419 6.55859375 8.02734375 C7.01975586 8.80803223 7.48091797 9.5887207 7.95605469 10.39306641 C8.44493164 11.23272949 8.93380859 12.07239258 9.4375 12.9375 C10.51302055 14.75728077 11.58988588 16.5762673 12.66796875 18.39453125 C13.2201709 19.3273291 13.77237305 20.26012695 14.34130859 21.22119141 C16.92741709 25.55370346 19.58523034 29.8405655 22.25 34.125 C23.32953101 35.86321671 24.40895512 37.60149982 25.48828125 39.33984375 C26.04854004 40.24202637 26.60879883 41.14420898 27.18603516 42.07373047 C30.26246273 47.03659196 33.32540738 52.00774433 36.38635254 56.98016357 C37.40519301 58.63502506 38.42475273 60.28944367 39.44433594 61.94384766 C42.93545048 67.61580289 46.38928305 73.30441508 49.75805664 79.05004883 C50.98078389 81.12515118 50.98078389 81.12515118 53 83 C53.68332718 84.65990548 54.34810249 86.32750131 55 88 C55.84049086 89.56186491 56.71476024 91.10589668 57.6171875 92.6328125 C58.13531006 93.51122803 58.65343262 94.38964355 59.18725586 95.29467773 C59.74421143 96.22868408 60.30116699 97.16269043 60.875 98.125 C61.45580322 99.103479 62.03660645 100.08195801 62.63500977 101.09008789 C66.78448766 108.04681402 71.05567031 114.91717023 75.40991211 121.74707031 C79.33233991 127.90878264 83.15025111 134.12939802 86.9375 140.375 C91.38467612 147.70770199 95.8538424 155.02515375 100.375 162.3125 C105.20283798 170.09478578 110.01428211 177.88691223 114.8125 185.6875 C115.47958984 186.77184326 116.14667969 187.85618652 116.83398438 188.97338867 C119.94616611 194.0329219 123.05736042 199.0930608 126.16734314 204.15394592 C127.90284804 206.97786466 129.63901551 209.80137607 131.375 212.625 C132.03862549 213.70547607 132.70225098 214.78595215 133.38598633 215.89916992 C136.30949338 220.65357497 139.24241892 225.4005568 142.2265625 230.1171875 C142.70174316 230.86919434 143.17692383 231.62120117 143.66650391 232.39599609 C144.52663173 233.75311465 145.39061159 235.10780315 146.25927734 236.45947266 C149 240.78105853 149 240.78105853 149 243 C144.75597565 241.67588936 140.86859526 240.05895727 136.89433289 238.07078552 C136.31004747 237.77985002 135.72576205 237.48891452 135.12377101 237.18916279 C133.18045255 236.22030536 131.24002909 235.24579144 129.29956055 234.27124023 C127.90146969 233.57273164 126.50320566 232.87456958 125.1047821 232.17672729 C121.31822918 230.28586887 117.53418773 228.39003485 113.75063682 226.49317813 C109.79127657 224.50910077 105.82980367 222.52925014 101.86860657 220.54884338 C95.2221535 217.22514905 88.57725514 213.89836363 81.93334961 210.56958008 C74.24381792 206.71693782 66.55219252 202.868503 58.85936135 199.02245373 C51.46229546 195.32422547 44.06637315 191.6237166 36.67109108 187.92192268 C33.52109487 186.34515601 30.3707575 184.76907397 27.22015953 183.19351006 C23.51661001 181.34123462 19.81408288 179.48693129 16.11235237 177.63102341 C14.75050481 176.94863426 13.38831401 176.26692962 12.02576447 175.58594322 C10.17316051 174.65988507 8.32179776 173.73139252 6.4707489 172.80223083 C4.91308571 172.02214236 4.91308571 172.02214236 3.32395458 171.22629452 C1 170 1 170 0 169 C-0.09696917 166.82307389 -0.12186746 164.64293607 -0.12025452 162.46385193 C-0.12153615 161.42738977 -0.12153615 161.42738977 -0.12284368 160.36998898 C-0.12450047 158.0375678 -0.1189739 155.70521737 -0.11352539 153.37280273 C-0.11324354 151.70765179 -0.11340122 150.04250072 -0.1139679 148.37734985 C-0.11425594 143.84241894 -0.10835816 139.30751424 -0.10139394 134.77258945 C-0.09516148 130.03866631 -0.09455669 125.30474264 -0.09336853 120.57081604 C-0.09025489 111.599979 -0.08204108 102.62915408 -0.07201904 93.65832239 C-0.0608589 83.44809608 -0.0553477 73.2378692 -0.05032361 63.02763832 C-0.03985849 42.01841877 -0.02225843 21.00921015 0 0 Z " fill="#808080" transform="translate(181,136)"/>
</svg>
